<svg width="30" height="30" viewBox="0 0 30 30" fill="none" xmlns="http://www.w3.org/2000/svg">
<g clip-path="url(#clip0)">
<path d="M27.1144 15.0001C27.1144 13.1297 28.2658 11.6529 29.9997 10.6383C29.6876 9.59436 29.2737 8.59435 28.7644 7.65256C26.8201 8.16149 25.2462 7.3997 23.9234 6.07683C22.6005 4.75396 22.1955 3.17967 22.7044 1.23572C21.7634 0.726077 20.7634 0.312145 19.7187 0C18.7038 1.7343 16.8706 2.88574 14.9999 2.88574C13.1295 2.88574 11.2963 1.73466 10.281 0C9.23706 0.311788 8.23707 0.726077 7.29565 1.23501C7.80421 3.17931 7.39957 4.75361 6.07673 6.07683C4.75388 7.3997 3.17961 8.16149 1.23535 7.65327C0.726065 8.59399 0.31214 9.59436 0 10.6386C1.73391 11.6529 2.88533 13.1301 2.88533 15.0001C2.88533 16.8701 1.73391 18.7041 0 19.7191C0.31214 20.7634 0.726065 21.7634 1.23535 22.7052C3.17961 22.1962 4.75388 22.6012 6.07673 23.9241C7.39922 25.2473 7.80421 26.8209 7.29565 28.7652C8.23707 29.2741 9.23706 29.6888 10.2813 30.0002C11.2967 28.2663 13.1295 27.1145 14.9999 27.1145C16.8706 27.1145 18.7038 28.2663 19.7187 30.0002C20.7634 29.6881 21.7634 29.2741 22.7048 28.7645C22.1962 26.8209 22.6005 25.247 23.9234 23.9237C25.2462 22.6009 26.8201 21.8387 28.7644 22.3477C29.2737 21.4059 29.6876 20.4059 29.9997 19.3616C28.2658 18.3469 27.1144 16.8705 27.1144 15.0001ZM14.9999 21.5237C11.3974 21.5237 8.47671 18.603 8.47671 15.0001C8.47671 11.3972 11.397 8.47649 14.9999 8.47649C18.6027 8.47649 21.523 11.3972 21.523 15.0001C21.523 18.603 18.6027 21.5237 14.9999 21.5237Z" fill="white"/>
</g>
<defs>
<clipPath id="clip0">
<rect width="30" height="30" fill="white"/>
</clipPath>
</defs>
</svg>
