<svg width="40" height="35" viewBox="0 0 40 35" fill="none" >
<path d="M36.7298 9.7824C37.1625 8.47145 37.3792 7.11247 37.3792 5.70496C37.3792 3.82804 36.9701 2.06435 36.1529 0.414062C34.4386 0.414062 32.9241 0.729857 31.6097 1.36068C30.2959 1.99167 28.7975 2.97051 27.1154 4.29719C25.0002 3.7795 22.756 3.52066 20.3847 3.52066C17.7884 3.52066 15.3124 3.80399 12.9568 4.3702C11.2422 3.01097 9.72778 2.01216 8.41365 1.37292C7.09953 0.733682 5.57719 0.414147 3.8463 0.414147C3.02902 2.06444 2.62042 3.82821 2.62042 5.70504C2.62042 7.12896 2.83663 8.50426 3.26939 9.83077C1.08966 12.4035 0 15.607 0 19.4416C0 22.8074 0.496585 25.4848 1.49034 27.4752C2.01934 28.5265 2.70823 29.4569 3.55768 30.2661C4.40679 31.0748 5.37639 31.7306 6.46621 32.2323C7.55621 32.7335 8.65369 33.1504 9.7596 33.4818C10.8654 33.8133 12.0873 34.0562 13.4255 34.2093C14.7636 34.3637 15.9454 34.4647 16.971 34.5136C17.9966 34.5615 19.1343 34.5861 20.3846 34.5861C21.8587 34.5861 23.1964 34.5493 24.3989 34.477C25.601 34.4043 26.9748 34.226 28.5215 33.9435C30.0679 33.6602 31.4302 33.2756 32.6083 32.7904C33.7862 32.3052 34.9163 31.6093 35.9979 30.7035C37.0796 29.797 37.9247 28.7213 38.534 27.4753C39.511 25.4689 40 22.7909 40 19.4417C39.9994 15.5908 38.9097 12.3712 36.7298 9.7824ZM33.8462 27.4382C33.3332 28.4983 32.6841 29.3309 31.899 29.9382C31.1135 30.5451 30.1361 31.0303 28.9664 31.3948C27.796 31.7587 26.6748 31.9972 25.601 32.1101C24.5268 32.2235 23.3333 32.28 22.0189 32.28H17.9804C16.6663 32.28 15.4722 32.2235 14.3986 32.1101C13.3249 31.9972 12.2032 31.7587 11.0332 31.3948C9.86367 31.0303 8.88624 30.5451 8.10078 29.9382C7.31532 29.3308 6.66634 28.4983 6.15351 27.4382C5.64076 26.3781 5.3843 25.1366 5.3843 23.713C5.3843 21.7709 5.93721 20.1203 7.04312 18.7618C8.14894 17.4026 9.6472 16.7232 11.5381 16.7232C12.2275 16.7232 13.79 16.893 16.2258 17.2329C17.3635 17.4108 18.6217 17.4998 19.9997 17.4998C21.3782 17.4998 22.6361 17.411 23.7737 17.2329C26.242 16.8929 27.804 16.7232 28.4615 16.7232C30.3523 16.7232 31.8506 17.4029 32.9564 18.7618C34.0623 20.1209 34.6149 21.7709 34.6149 23.713C34.6149 25.1369 34.3584 26.3791 33.8462 27.4382Z" fill="white"/>
<path d="M14.0503 19.8783C13.5615 19.3279 12.9808 19.0527 12.3076 19.0527C11.6342 19.0527 11.0534 19.3282 10.5646 19.8783C10.0761 20.4281 9.73135 21.0431 9.53113 21.722C9.33049 22.4022 9.23047 23.0654 9.23047 23.713C9.23047 24.3599 9.33075 25.0232 9.53113 25.7033C9.7311 26.3826 10.0757 26.9972 10.5646 27.547C11.0536 28.0974 11.6342 28.3726 12.3076 28.3726C12.9808 28.3726 13.5617 28.0969 14.0503 27.547C14.539 26.9971 14.8836 26.3826 15.0838 25.7033C15.2842 25.0232 15.3845 24.3599 15.3845 23.713C15.3845 23.066 15.2845 22.4022 15.0838 21.722C14.8835 21.0434 14.5392 20.4286 14.0503 19.8783Z" fill="white"/>
<path d="M29.435 19.8783C28.9463 19.3279 28.3655 19.0527 27.6924 19.0527C27.0196 19.0527 26.4384 19.3282 25.9495 19.8783C25.4608 20.4281 25.1163 21.0431 24.9163 21.722C24.7155 22.4022 24.6152 23.0654 24.6152 23.713C24.6152 24.3599 24.7155 25.0232 24.9163 25.7033C25.1163 26.3826 25.4609 26.9972 25.9495 27.547C26.4385 28.0974 27.0196 28.3726 27.6924 28.3726C28.3655 28.3726 28.9464 28.0969 29.435 27.547C29.9234 26.9971 30.2682 26.3826 30.4688 25.7033C30.6691 25.0232 30.7693 24.3599 30.7693 23.713C30.7693 23.066 30.6691 22.4022 30.4688 21.722C30.2683 21.0434 29.9234 20.4286 29.435 19.8783Z" fill="white"/>
</svg>
