<svg width="35" height="35" viewBox="0 0 35 35" fill="none" >
<path d="M17.5058 8.51367C12.5431 8.51367 8.52539 12.5358 8.52539 17.4941C8.52539 22.4568 12.5475 26.4745 17.5058 26.4745C22.4685 26.4745 26.4862 22.4524 26.4862 17.4941C26.4862 12.5314 22.4641 8.51367 17.5058 8.51367V8.51367ZM17.5058 23.323C14.2843 23.323 11.6768 20.7141 11.6768 17.4941C11.6768 14.2741 14.2858 11.6651 17.5058 11.6651C20.7258 11.6651 23.3348 14.2741 23.3348 17.4941C23.3362 20.7141 20.7273 23.323 17.5058 23.323V23.323Z" fill="white"/>
<path d="M24.7162 0.110915C21.4962 -0.0392929 13.5205 -0.0320012 10.2976 0.110915C7.46554 0.243624 4.96741 0.927582 2.95346 2.94154C-0.412377 6.30737 0.0178314 10.8428 0.0178314 17.4942C0.0178314 24.3017 -0.361335 28.7322 2.95346 32.047C6.33241 35.4245 10.9335 34.9826 17.5062 34.9826C24.2495 34.9826 26.577 34.987 28.9614 34.0638C32.2032 32.8053 34.6503 29.9076 34.8895 24.7028C35.0412 21.4813 35.0324 13.5072 34.8895 10.2842C34.6007 4.14029 31.3035 0.414249 24.7162 0.110915V0.110915ZM29.813 29.8201C27.6066 32.0265 24.5455 31.8297 17.4639 31.8297C10.1722 31.8297 7.24825 31.9376 5.11471 29.7982C2.65741 27.3526 3.10221 23.4253 3.10221 17.4709C3.10221 9.41362 2.27533 3.61091 10.3618 3.19675C12.2197 3.13112 12.7666 3.10925 17.4435 3.10925L17.5091 3.153C25.2805 3.153 31.3778 2.33925 31.7439 10.4242C31.827 12.269 31.846 12.8232 31.846 17.4928C31.8445 24.6999 31.9816 27.6413 29.813 29.8201V29.8201Z" fill="white"/>
<path d="M26.8417 10.2576C28.0007 10.2576 28.9402 9.31808 28.9402 8.15908C28.9402 7.00009 28.0007 6.06055 26.8417 6.06055C25.6827 6.06055 24.7432 7.00009 24.7432 8.15908C24.7432 9.31808 25.6827 10.2576 26.8417 10.2576Z" fill="white"/>
</svg>
