<svg width="35" height="35" viewBox="0 0 35 35" fill="none" >
<path d="M34.9913 34.9995V34.998H35.0001V22.1618C35.0001 15.8822 33.6482 11.0449 26.307 11.0449C22.7778 11.0449 20.4095 12.9816 19.4426 14.8176H19.3405V11.6312H12.3799V34.998H19.6278V23.4276C19.6278 20.3812 20.2053 17.4353 23.978 17.4353C27.6953 17.4353 27.7507 20.912 27.7507 23.623V34.9995H34.9913Z" fill="white"/>
<path d="M0.577148 11.6338H7.83382V35.0007H0.577148V11.6338Z" fill="white"/>
<path d="M4.20292 0C1.88271 0 0 1.88271 0 4.20292C0 6.52313 1.88271 8.44521 4.20292 8.44521C6.52313 8.44521 8.40583 6.52313 8.40583 4.20292C8.40438 1.88271 6.52167 0 4.20292 0V0Z" fill="white"/>

</svg>
