<svg width="25" height="25" viewBox="0 0 25 25" fill="none" xmlns="http://www.w3.org/2000/svg">
<path d="M22.0703 2.34375H2.92969C1.31426 2.34375 0 3.65801 0 5.27344V7.69019L10.7515 15.6873C11.2744 16.0762 11.8872 16.2707 12.5 16.2707C13.1128 16.2707 13.7256 16.0763 14.2485 15.6873L25 7.69019V5.27344C25 3.65801 23.6857 2.34375 22.0703 2.34375ZM23.0469 6.70879L13.0829 14.1201C12.7342 14.3794 12.2658 14.3794 11.9172 14.1201L1.95312 6.70879V5.27344C1.95312 4.73496 2.39121 4.29688 2.92969 4.29688H22.0703C22.6088 4.29688 23.0469 4.73496 23.0469 5.27344V6.70879ZM23.0469 11.5771L25 10.1244V19.7266C25 21.342 23.6857 22.6562 22.0703 22.6562H2.92969C1.31426 22.6562 0 21.342 0 19.7266V10.1244L1.95312 11.5771V19.7266C1.95312 20.265 2.39121 20.7031 2.92969 20.7031H22.0703C22.6088 20.7031 23.0469 20.265 23.0469 19.7266V11.5771Z" fill="white"/>
</svg>
