<svg width="25" height="25" viewBox="0 0 25 25" fill="none" xmlns="http://www.w3.org/2000/svg">
<path d="M10.3531 14.6486C7.96699 12.2624 7.42822 9.87616 7.30668 8.92013C7.27272 8.65579 7.36368 8.39069 7.55279 8.20289L9.48372 6.27273C9.76776 5.98884 9.81817 5.54642 9.60526 5.20592L6.53086 0.431796C6.29532 0.0547491 5.81169 -0.0813308 5.41411 0.117573L0.478593 2.44213C0.157084 2.60046 -0.0320235 2.94207 0.00448036 3.2986C0.263087 5.75549 1.33415 11.7951 7.26918 17.7309C13.2042 23.6666 19.2427 24.7373 21.7007 24.9959C22.0573 25.0324 22.3989 24.8433 22.5572 24.5218L24.8816 19.586C25.0798 19.1893 24.9446 18.7069 24.5691 18.471L19.7952 15.3973C19.4549 15.1841 19.0126 15.2342 18.7285 15.518L16.7984 17.449C16.6106 17.6381 16.3455 17.7291 16.0812 17.6951C15.1252 17.5736 12.7392 17.0348 10.3531 14.6486V14.6486Z" fill="white"/>
<path d="M19.8269 13.3622C19.3508 13.3622 18.9649 12.9763 18.9649 12.5002C18.9609 8.93106 16.0687 6.03872 12.4997 6.03468C12.0236 6.03468 11.6377 5.64872 11.6377 5.17261C11.6377 4.69651 12.0236 4.31055 12.4997 4.31055C17.0204 4.31554 20.684 7.97924 20.6889 12.5002C20.6889 12.9763 20.303 13.3622 19.8269 13.3622Z" fill="white"/>
<path d="M24.1371 13.362C23.661 13.362 23.275 12.9761 23.275 12.5C23.2684 6.55139 18.448 1.73078 12.4997 1.72413C12.0236 1.72413 11.6377 1.33817 11.6377 0.862066C11.6377 0.38596 12.0236 0 12.4997 0C19.3998 0.00760165 24.9915 5.59957 24.9991 12.5C24.9991 12.7286 24.9083 12.9479 24.7466 13.1095C24.5849 13.2712 24.3657 13.362 24.1371 13.362Z" fill="white"/>
</svg>
