<svg width="35" height="35" viewBox="0 0 35 35" fill="none" >
<path d="M0.618203 16.8755L8.6829 19.8855L11.8044 29.9243C12.0042 30.5673 12.7904 30.8049 13.3122 30.3783L17.8076 26.7136C18.2789 26.3296 18.95 26.3105 19.4425 26.6679L27.5506 32.5546C28.1088 32.9604 28.8997 32.6545 29.0397 31.9799L34.9793 3.40928C35.1322 2.67241 34.4081 2.05769 33.7065 2.32906L0.608753 15.0972C-0.20803 15.4122 -0.200913 16.5686 0.618203 16.8755ZM11.3014 18.2832L27.0628 8.57574C27.3461 8.40179 27.6375 8.78481 27.3943 9.01044L14.3865 21.1018C13.9293 21.5274 13.6344 22.0969 13.5508 22.7152L13.1077 25.9989C13.049 26.4373 12.4332 26.4808 12.3122 26.0565L10.608 20.0686C10.4128 19.3856 10.6973 18.6561 11.3014 18.2832Z" fill="white"/>
</svg>
